<?xml version="1.0" encoding="UTF-8"?>
<svg version="1.1" xmlns="http://www.w3.org/2000/svg" width="530" height="530">
<path d="M0 0 C1.41860187 -0.00418182 2.83720038 -0.00966395 4.2557928 -0.01631981 C8.12193058 -0.03068224 11.98785351 -0.02655878 15.85400259 -0.019153 C20.03614171 -0.01440061 24.21823571 -0.02694945 28.40036011 -0.03717041 C36.58133856 -0.05432378 44.7622401 -0.05520556 52.94323186 -0.04995751 C59.59661975 -0.04590783 66.24998499 -0.04736882 72.90337181 -0.05270576 C73.85213935 -0.05345419 74.8009069 -0.05420261 75.77842497 -0.05497371 C77.7061686 -0.05650527 79.63391222 -0.05804362 81.56165584 -0.05958868 C99.62020865 -0.07330139 117.67871809 -0.06788485 135.7372699 -0.05640347 C152.23545873 -0.04647409 168.73353537 -0.05940885 185.23170689 -0.08333766 C202.19704706 -0.10775747 219.16233503 -0.11732934 236.1276924 -0.11068493 C245.64241053 -0.1071989 255.15704242 -0.10938394 264.67174721 -0.12693596 C272.7720008 -0.1416941 280.87210744 -0.14224642 288.97235826 -0.12486505 C293.09986007 -0.116382 297.22709976 -0.11413895 301.35458755 -0.1295166 C305.14287999 -0.14345501 308.93068803 -0.13848479 312.7189531 -0.11927737 C314.71747185 -0.11379479 316.71601584 -0.12771215 318.71448642 -0.14263147 C337.99317883 0.01236026 355.29879286 6.97949516 368.94987488 20.61424255 C381.87532422 34.14974261 389.62744461 49.95523722 390.03581238 68.88768005 C390.05829041 69.57080261 390.08076843 70.25392517 390.10392761 70.95774841 C390.08834202 74.16798108 389.89003273 76.01391415 387.89159012 78.5744133 C385.13687045 80.75253656 383.88201612 80.88275578 380.40977478 80.86869812 C379.36092102 80.87419678 378.31206726 80.87969543 377.23143005 80.88536072 C376.08631958 80.87097961 374.94120911 80.85659851 373.76139832 80.84178162 C372.55137146 80.84236572 371.3413446 80.84294983 370.09465027 80.84355164 C366.78055171 80.84124307 363.46745109 80.82119083 360.15352917 80.79325581 C356.68888479 80.76824229 353.22422697 80.76590021 349.75950623 80.76115417 C343.20047419 80.74872418 336.64170899 80.71590251 330.08279443 80.67575622 C322.61492502 80.63103904 315.14704283 80.60905165 307.67907286 80.58897448 C292.31866485 80.54716968 276.95852303 80.47681746 261.59831238 80.38768005 C261.59983126 81.16912496 261.60135014 81.95056987 261.60291505 82.75569493 C261.69248625 129.10161157 261.76108837 175.44751876 261.8025737 221.79350466 C261.80757634 227.36208736 261.81275365 232.93066988 261.81803894 238.49925232 C261.81908818 239.60782636 261.82013742 240.7164004 261.82121846 241.85856759 C261.83860931 259.79307233 261.87013974 277.72752563 261.90692356 295.66199989 C261.9443697 314.07336115 261.966556 332.48469553 261.97466636 350.89609331 C261.9801465 362.25093796 261.99743621 373.60563718 262.02997825 384.96043705 C262.05117147 392.75374799 262.05750155 400.54698408 262.05231789 408.34032173 C262.04976359 412.83229572 262.05359522 417.32401612 262.07513428 421.81594467 C262.0947531 425.93775519 262.09548427 430.05914414 262.08190796 434.18097501 C262.08023271 435.66307106 262.08517643 437.14519459 262.09784511 438.62723745 C262.25532946 458.20737928 256.50053352 476.02422616 242.79826355 490.3110199 C229.26257375 503.86292565 212.7222427 512.61729799 193.20956582 512.79357237 C192.22754136 512.78756232 191.2455169 512.78155228 190.23373413 512.77536011 C189.1560067 512.78074565 188.07827926 512.78613118 186.96789342 512.79167992 C183.39169939 512.80587595 179.8158799 512.79887634 176.2396698 512.79173279 C173.6612824 512.79744075 171.08289752 512.80440665 168.5045166 512.81253052 C162.24860899 512.82965445 155.99280211 512.83057183 149.73687717 512.82531761 C144.64717895 512.82126226 139.55751031 512.8227356 134.46781349 512.82806587 C133.74107485 512.82881429 133.0143362 512.82956272 132.26557517 512.83033382 C130.78879155 512.83186543 129.31200792 512.83340378 127.83522431 512.83494879 C114.01147682 512.84865094 100.18778605 512.8432525 86.36403988 512.83176357 C73.74575363 512.82183615 61.12761412 512.83476741 48.5093505 512.85869776 C35.52165042 512.88314124 22.53401854 512.89268362 9.54629594 512.88604504 C2.26722179 512.88256412 -5.01173964 512.8847098 -12.29079628 512.90229607 C-19.13883179 512.91863712 -25.98658386 512.91375506 -32.83461189 512.89499092 C-35.33907266 512.89131847 -37.84355432 512.89437399 -40.34799576 512.90487671 C-63.24568733 512.99352466 -83.16575854 510.04485316 -100.32502747 493.58763123 C-114.06964028 479.85946496 -122.41535169 463.53724634 -122.83918762 443.88768005 C-122.86166565 443.2045575 -122.88414368 442.52143494 -122.90730286 441.81761169 C-122.89266657 438.80291132 -122.6349425 436.75164684 -120.99665833 434.19529724 C-116.98298785 431.39943534 -113.16046093 431.89239588 -108.38606262 431.99705505 C-107.41509644 432.00271484 -106.44413025 432.00837463 -105.44374084 432.01420593 C-102.34588593 432.03657694 -99.24919229 432.08677533 -96.15168762 432.13768005 C-94.05014184 432.15774409 -91.94857791 432.17599503 -89.84700012 432.19236755 C-84.69811592 432.23644425 -79.55009859 432.30547747 -74.40168762 432.38768005 C-74.4032065 431.60623515 -74.40472538 430.82479024 -74.40629029 430.01966518 C-74.49586149 383.67374854 -74.56446361 337.32784135 -74.60594894 290.98185545 C-74.61095158 285.41327275 -74.61612889 279.84469023 -74.62141418 274.27610779 C-74.62246343 273.16753375 -74.62351267 272.05895971 -74.6245937 270.91679252 C-74.64198456 252.98228777 -74.67351498 235.04783448 -74.71029881 217.11336022 C-74.74774494 198.70199895 -74.76993124 180.29066458 -74.7780416 161.8792668 C-74.78352175 150.52442215 -74.80081145 139.16972293 -74.83335349 127.81492306 C-74.85454672 120.02161211 -74.8608768 112.22837603 -74.85569313 104.43503838 C-74.85313883 99.94306438 -74.85697046 95.45134399 -74.87850952 90.95941544 C-74.89812834 86.83760492 -74.89885951 82.71621597 -74.8852832 78.59438509 C-74.88360795 77.11228904 -74.88855167 75.63016551 -74.90122035 74.14812266 C-75.0587047 54.56798082 -69.30390876 36.75113394 -55.60163879 22.46434021 C-39.85498674 6.69882343 -22.25231526 -0.10340787 0 0 Z M-44.65168762 35.51268005 C-57.45199359 50.70975114 -58.56356235 68.22178155 -58.52194214 87.25721741 C-58.52237883 88.75077628 -58.52325555 90.24433507 -58.5245313 91.73789346 C-58.52675693 95.81987644 -58.52278156 99.90183296 -58.51775324 103.98381257 C-58.51342107 108.39403927 -58.51489713 112.80426457 -58.51565552 117.2144928 C-58.516179 124.84816972 -58.51305055 132.48183808 -58.50741768 140.11551285 C-58.49927888 151.15242571 -58.49668502 162.18933444 -58.49542969 173.22624998 C-58.49324291 191.13439178 -58.48659296 209.04252901 -58.47712708 226.95066833 C-58.46794329 244.34324623 -58.46086718 261.73582288 -58.45661926 279.12840271 C-58.45635654 280.20109388 -58.45609382 281.27378506 -58.45582313 282.37898202 C-58.45451806 287.76054132 -58.45325436 293.14210063 -58.45201123 298.52365994 C-58.44165026 343.14500314 -58.42404211 387.76634136 -58.40168762 432.38768005 C-56.95248318 432.39126258 -56.95248318 432.39126258 -55.47400188 432.39491749 C-31.98948094 432.45365498 -8.50506306 432.52950198 14.97934437 432.62339497 C26.33612962 432.66840246 37.69288317 432.70780563 49.04972839 432.7341156 C58.94582908 432.75705563 68.84182983 432.79040869 78.73785132 432.83638161 C83.98001233 432.86036786 89.22207403 432.87906117 94.46428871 432.88529396 C99.39481452 432.89132046 104.32508608 432.91123155 109.25551796 432.94195557 C111.06836688 432.95077501 112.88124898 432.95445035 114.6941185 432.95268822 C117.16315681 432.95104552 119.63141072 432.96764773 122.1003418 432.98895264 C122.82310155 432.98410506 123.54586131 432.97925748 124.29052287 432.97426301 C127.13011599 433.01489654 129.12381839 433.06915362 131.5185957 434.67676067 C133.43054903 437.7064425 133.53184809 441.27371126 133.97331238 444.76268005 C136.29147406 460.30352418 142.0062015 473.70454443 154.48503113 483.83299255 C167.11141728 493.1219051 181.27913738 497.71974744 196.97331238 495.76268005 C212.46539605 492.95760455 225.34394929 485.79534769 234.84831238 473.0634613 C244.94569959 457.62437594 245.75240105 442.80320738 245.72961426 424.85980225 C245.73131896 423.29443741 245.73346981 421.72907302 245.73602551 420.16370934 C245.74060197 416.77408197 245.74204742 413.38447281 245.74106026 409.99484253 C245.73946059 404.4781727 245.74468436 398.9615208 245.75068665 393.44485474 C245.75878442 385.43470579 245.76373822 377.42456001 245.76697731 369.41440773 C245.77248671 356.74461154 245.78939704 344.07484209 245.80831909 331.40505981 C245.81467521 327.06578927 245.82098373 322.72651865 245.82729626 318.38724804 C245.82888002 317.3029163 245.83046378 316.21858455 245.83209554 315.10139427 C245.85001831 302.76884626 245.86625159 290.43629638 245.88127136 278.10374451 C245.88264723 276.97690057 245.88402311 275.85005662 245.88544067 274.6890659 C245.9073669 256.43189919 245.91812678 238.17473941 245.92564211 219.91756187 C245.93372195 201.15328591 245.95703892 182.3890692 245.99359578 163.62482709 C246.01557954 152.06205888 246.02529807 140.49941265 246.01909544 128.93662461 C246.01591325 121.00788705 246.02730108 113.07925346 246.04998986 105.15054808 C246.06261615 100.5815698 246.06887781 96.01282324 246.05757332 91.44383621 C246.04733584 87.25207556 246.05579497 83.06076287 246.07843628 78.8690547 C246.08339233 77.36170113 246.08177673 75.85430664 246.0725036 74.34697346 C245.95856074 54.22600631 251.85397093 36.5984638 266.00480652 22.06663513 C266.45718689 21.60925964 266.90956726 21.15188416 267.37565613 20.6806488 C269.61967759 18.59613242 269.61967759 18.59613242 270.59831238 16.38768005 C235.93064217 16.34184909 201.26297891 16.3066337 166.59528493 16.28554939 C162.49749846 16.28304814 158.39971204 16.28045948 154.30192566 16.27781677 C153.07829151 16.27702984 153.07829151 16.27702984 151.82993747 16.27622701 C138.64120559 16.26753703 125.45249123 16.25177483 112.26376973 16.23337446 C98.71937459 16.21463622 85.17498859 16.20355505 71.63058102 16.19950306 C63.28069645 16.19676613 54.93086143 16.18813843 46.58099212 16.17184712 C40.84625893 16.16123174 35.11155116 16.15808968 29.37680887 16.1606773 C26.07385143 16.16195154 22.7709978 16.15895981 19.46805191 16.1492691 C-5.16392432 16.08057034 -26.40262601 16.63192015 -44.65168762 35.51268005 Z M277.37956238 33.41111755 C268.79403764 42.29383353 264.9941435 52.40852445 262.59831238 64.38768005 C298.89831238 64.38768005 335.19831238 64.38768005 372.59831238 64.38768005 C368.45769254 47.82520069 362.25946727 34.80120023 347.59831238 25.38768005 C323.61300718 11.66821222 297.86791199 14.72631985 277.37956238 33.41111755 Z M-105.40168762 448.38768005 C-100.94733374 466.20509559 -94.54304177 478.51641118 -78.84822083 488.3981781 C-67.68897272 495.00079568 -55.68747682 496.55883763 -42.95440674 496.50793457 C-41.75455827 496.50921621 -41.75455827 496.50921621 -40.53047043 496.51052374 C-37.87741187 496.51215749 -35.22441799 496.50669198 -32.57136536 496.50120544 C-30.65873211 496.50092309 -28.74609876 496.50108225 -26.83346558 496.50164795 C-21.66060022 496.50193405 -16.4877582 496.49606765 -11.31489825 496.48907399 C-5.90169567 496.4828092 -0.48849251 496.48223418 4.92471313 496.48104858 C15.16671629 496.47794448 25.40870874 496.4697435 35.65070719 496.45969909 C47.31453776 496.44850936 58.97836885 496.4430203 70.64220345 496.43800366 C94.62757903 496.42756011 118.6129451 496.40997851 142.59831238 496.38768005 C141.64214477 495.26959004 140.68561269 494.1518117 139.72892761 493.03416443 C139.19629807 492.41166809 138.66366852 491.78917175 138.11489868 491.14781189 C136.92616534 489.76818226 135.72046022 488.40317296 134.50846863 487.04393005 C124.52443709 475.39237528 121.33465672 463.33305744 117.59831238 448.38768005 C44.00831238 448.38768005 -29.58168762 448.38768005 -105.40168762 448.38768005 Z " fill="#000000" transform="translate(131.4016876220703,8.612319946289063)"/>
<path d="M0 0 C73.59 0 147.18 0 223 0 C223 5.28 223 10.56 223 16 C149.41 16 75.82 16 0 16 C0 10.72 0 5.44 0 0 Z " fill="#000000" transform="translate(130,291)"/>
<path d="M0 0 C72.27 0 144.54 0 219 0 C219 5.28 219 10.56 219 16 C146.73 16 74.46 16 0 16 C0 10.72 0 5.44 0 0 Z " fill="#000000" transform="translate(134,135)"/>
<path d="M0 0 C70.62 0 141.24 0 214 0 C214 5.28 214 10.56 214 16 C143.38 16 72.76 16 0 16 C0 10.72 0 5.44 0 0 Z " fill="#000000" transform="translate(139,408)"/>
<path d="M0 0 C63.69 0 127.38 0 193 0 C193 5.28 193 10.56 193 16 C129.31 16 65.62 16 0 16 C0 10.72 0 5.44 0 0 Z " fill="#000000" transform="translate(160,213)"/>
<path d="M0 0 C62.37 0 124.74 0 189 0 C189 5.28 189 10.56 189 16 C126.63 16 64.26 16 0 16 C0 10.72 0 5.44 0 0 Z " fill="#000000" transform="translate(164,330)"/>
<path d="M0 0 C62.37 0 124.74 0 189 0 C189 5.28 189 10.56 189 16 C126.63 16 64.26 16 0 16 C0 10.72 0 5.44 0 0 Z " fill="#000000" transform="translate(164,57)"/>
<path d="M0 0 C55.77 0 111.54 0 169 0 C169 5.28 169 10.56 169 16 C113.23 16 57.46 16 0 16 C0 10.72 0 5.44 0 0 Z " fill="#000000" transform="translate(184,174)"/>
<path d="M0 0 C54.78 0 109.56 0 166 0 C166 5.28 166 10.56 166 16 C111.22 16 56.44 16 0 16 C0 10.72 0 5.44 0 0 Z " fill="#000000" transform="translate(187,96)"/>
<path d="M0 0 C46.86 0 93.72 0 142 0 C142 5.28 142 10.56 142 16 C95.14 16 48.28 16 0 16 C0 10.72 0 5.44 0 0 Z " fill="#000000" transform="translate(211,369)"/>
<path d="M0 0 C46.86 0 93.72 0 142 0 C142 5.28 142 10.56 142 16 C95.14 16 48.28 16 0 16 C0 10.72 0 5.44 0 0 Z " fill="#000000" transform="translate(211,252)"/>
<path d="M0 0 C33.66 0 67.32 0 102 0 C102 5.28 102 10.56 102 16 C68.34 16 34.68 16 0 16 C0 10.72 0 5.44 0 0 Z " fill="#000000" transform="translate(97,369)"/>
<path d="M0 0 C33.33 0 66.66 0 101 0 C101 5.28 101 10.56 101 16 C67.67 16 34.34 16 0 16 C0 10.72 0 5.44 0 0 Z " fill="#000000" transform="translate(97,252)"/>
<path d="M0 0 C25.41 0 50.82 0 77 0 C77 5.28 77 10.56 77 16 C51.59 16 26.18 16 0 16 C0 10.72 0 5.44 0 0 Z " fill="#000000" transform="translate(97,96)"/>
<path d="M0 0 C24.75 0 49.5 0 75 0 C75 5.28 75 10.56 75 16 C50.25 16 25.5 16 0 16 C0 10.72 0 5.44 0 0 Z " fill="#000000" transform="translate(97,174)"/>
<path d="M0 0 C17.82 0 35.64 0 54 0 C54 5.28 54 10.56 54 16 C36.18 16 18.36 16 0 16 C0 10.72 0 5.44 0 0 Z " fill="#000000" transform="translate(97,330)"/>
<path d="M0 0 C17.82 0 35.64 0 54 0 C54 5.28 54 10.56 54 16 C36.18 16 18.36 16 0 16 C0 10.72 0 5.44 0 0 Z " fill="#000000" transform="translate(97,57)"/>
<path d="M0 0 C16.83 0 33.66 0 51 0 C51 5.28 51 10.56 51 16 C34.17 16 17.34 16 0 16 C0 10.72 0 5.44 0 0 Z " fill="#000000" transform="translate(97,213)"/>
<path d="M0 0 C9.57 0 19.14 0 29 0 C29 5.28 29 10.56 29 16 C19.43 16 9.86 16 0 16 C0 10.72 0 5.44 0 0 Z " fill="#000000" transform="translate(97,408)"/>
<path d="M0 0 C7.92 0 15.84 0 24 0 C24 5.28 24 10.56 24 16 C16.08 16 8.16 16 0 16 C0 10.72 0 5.44 0 0 Z " fill="#000000" transform="translate(97,135)"/>
<path d="M0 0 C6.93 0 13.86 0 21 0 C21 5.28 21 10.56 21 16 C14.07 16 7.14 16 0 16 C0 10.72 0 5.44 0 0 Z " fill="#000000" transform="translate(97,291)"/>
<path d="M0 0 C2 1 2 1 2 1 Z " fill="#000000" transform="translate(163,49)"/>
</svg>
